<?xml version="1.0" encoding="UTF-8" standalone="no"?>
<!-- Created with Inkscape (http://www.inkscape.org/) -->

<svg
   width="512"
   height="512"
   viewBox="0 0 135.46666 135.46667"
   version="1.1"
   id="svg5"
   inkscape:version="1.1.2 (b8e25be833, 2022-02-05)"
   sodipodi:docname="github_logo.svg"
   xmlns:inkscape="http://www.inkscape.org/namespaces/inkscape"
   xmlns:sodipodi="http://sodipodi.sourceforge.net/DTD/sodipodi-0.dtd"
   xmlns="http://www.w3.org/2000/svg"
   xmlns:svg="http://www.w3.org/2000/svg">
  <sodipodi:namedview
     id="namedview7"
     pagecolor="#6b6b6b"
     bordercolor="#999999"
     borderopacity="1"
     inkscape:pageshadow="0"
     inkscape:pageopacity="0"
     inkscape:pagecheckerboard="0"
     inkscape:document-units="mm"
     showgrid="false"
     inkscape:zoom="0.74029883"
     inkscape:cx="230.9878"
     inkscape:cy="268.81037"
     inkscape:window-width="1920"
     inkscape:window-height="1017"
     inkscape:window-x="-8"
     inkscape:window-y="-8"
     inkscape:window-maximized="1"
     inkscape:current-layer="layer1"
     units="px"
     height="512px" />
  <defs
     id="defs2" />
  <g
     inkscape:label="Warstwa 1"
     inkscape:groupmode="layer"
     id="layer1">
    <path
       style="fill:#ffffff;fill-opacity:1;stroke:none;stroke-width:2.23857px;stroke-linecap:butt;stroke-linejoin:miter;stroke-opacity:1"
       d="m 67.685924,1.7870036 c 37.396466,0 67.685916,30.2894474 67.685916,67.6859164 a 67.795906,67.795906 0 0 1 -46.11103,64.21701 c -3.384296,0.67686 -4.653407,-1.43833 -4.653407,-3.21508 0,-2.2844 0.08461,-9.56064 0.08461,-18.61363 0,-6.34555 -2.115185,-10.40671 -4.5688,-12.521889 15.060117,-1.692148 30.881697,-7.445451 30.881697,-33.419921 0,-7.445451 -2.62283,-13.452576 -6.93781,-18.19059 0.67686,-1.692148 3.04587,-8.629955 -0.67685,-17.936768 0,0 -5.668698,-1.861363 -18.61363,6.937806 -5.414873,-1.522933 -11.168176,-2.284399 -16.921479,-2.284399 -5.753303,0 -11.506606,0.761466 -16.921479,2.284399 -12.944931,-8.714562 -18.613627,-6.937806 -18.613627,-6.937806 -3.722725,9.306813 -1.353718,16.24462 -0.676859,17.936768 -4.314977,4.738014 -6.937806,10.829746 -6.937806,18.19059 0,25.889862 15.736975,31.727773 30.797091,33.419921 -1.94597,1.692149 -3.722725,4.653399 -4.314977,9.052989 -3.89194,1.77675 -13.62179,4.6534 -19.713523,-5.58409 -1.269111,-2.03057 -5.076444,-7.02241 -10.406709,-6.937803 -5.668696,0.08461 -2.2844,3.215081 0.08461,4.484193 2.876651,1.60754 6.17634,7.61466 6.937806,9.56063 1.353719,3.80733 5.753303,11.08357 22.75939,7.9531 0,5.66869 0.08461,10.99896 0.08461,12.6065 0,1.77675 -1.269111,3.80733 -4.653407,3.21508 A 67.643612,67.643612 0 0 1 8.219267e-6,69.47292 C 8.219267e-6,32.076451 30.289456,1.7870036 67.685924,1.7870036 Z"
       id="path876"
       inkscape:export-filename="D:\Github\BhanosTD.github.io\sources\images\github_logo.png"
       inkscape:export-xdpi="833.35883"
       inkscape:export-ydpi="833.35883" />
  </g>
</svg>
