<?xml version="1.0" encoding="UTF-8" standalone="no"?>
<svg
   height="512"
   width="512"
   viewBox="0 0 480.00196 479.99946"
   version="1.1"
   id="svg4"
   sodipodi:docname="itch_io_logo.svg"
   inkscape:version="1.1.2 (b8e25be833, 2022-02-05)"
   xmlns:inkscape="http://www.inkscape.org/namespaces/inkscape"
   xmlns:sodipodi="http://sodipodi.sourceforge.net/DTD/sodipodi-0.dtd"
   xmlns="http://www.w3.org/2000/svg"
   xmlns:svg="http://www.w3.org/2000/svg">
  <defs
     id="defs8" />
  <sodipodi:namedview
     id="namedview6"
     pagecolor="#ffffff"
     bordercolor="#999999"
     borderopacity="1"
     inkscape:pageshadow="0"
     inkscape:pageopacity="0"
     inkscape:pagecheckerboard="0"
     showgrid="false"
     inkscape:zoom="0.88234546"
     inkscape:cx="315.06934"
     inkscape:cy="307.13594"
     inkscape:window-width="1920"
     inkscape:window-height="1017"
     inkscape:window-x="-8"
     inkscape:window-y="-8"
     inkscape:window-maximized="1"
     inkscape:current-layer="svg4" />
  <path
     d="M 62.603706,28.17168 C 41.658177,40.608271 0.39139547,88.016047 0,100.44872 v 20.57958 c 0,26.08651 24.383938,49.01445 46.523223,49.01445 26.58358,0 48.73265,-22.03165 48.734607,-48.18078 0,26.14913 21.38976,48.18078 47.9753,48.18078 26.58749,0 47.29036,-22.03165 47.29036,-48.18078 0,26.14913 22.74399,48.18078 49.32953,48.18078 h 0.48141 c 26.5875,0 49.33149,-22.03165 49.33149,-48.18078 0,26.14913 20.70482,48.18078 47.2884,48.18078 26.58554,0 47.9753,-22.03165 47.9753,-48.18078 0,26.14913 22.15298,48.18078 48.73461,48.18078 22.13928,0 46.52322,-22.92403 46.52322,-49.01445 V 100.44872 C 479.79605,88.01409 438.52927,40.604357 417.58766,28.17168 352.48685,25.88593 307.35504,25.490621 240.09177,25.500406 172.83046,25.506277 81.13041,26.557173 62.599792,28.17168 Z M 190.18689,157.75685 a 54.844291,54.844291 0 0 1 -9.35435,12.0452 c -10.03538,9.81228 -23.79098,15.89457 -38.9556,15.89457 a 55.738629,55.738629 0 0 1 -39.03778,-15.9024 c -3.636064,-3.5617 -6.399316,-7.36998 -8.929687,-11.80449 l -0.01174,0.008 c -2.528415,4.44234 -6.050974,8.24866 -9.694866,11.81427 a 55.773855,55.773855 0 0 1 -39.037784,15.89066 c -1.827817,0 -3.729999,-0.5049 -5.268184,-1.03329 -2.137019,22.25475 -3.039185,43.52318 -3.358173,59.03027 l -0.0039,0.0881 c -0.03914,7.87488 -0.07828,14.35052 -0.117418,23.34674 0.410965,46.69348 -4.624338,151.34089 20.587402,177.05361 39.069096,9.10973 110.96062,13.25853 183.08502,13.28397 h 0.0117 c 72.12245,-0.0254 144.01397,-4.17424 183.08306,-13.28397 25.21174,-25.71468 20.17644,-130.36209 20.5874,-177.05557 -0.0431,-8.99426 -0.0783,-15.4699 -0.11741,-23.34674 l -0.006,-0.0881 c -0.31703,-15.511 -1.21919,-36.77748 -3.35621,-59.03222 -1.53819,0.52838 -3.43841,1.03328 -5.26818,1.03328 a 55.773855,55.773855 0 0 1 -39.03765,-15.89082 c -3.64389,-3.56562 -7.16645,-7.36998 -9.69682,-11.81428 l -0.0117,-0.008 c -2.53233,4.43451 -5.29363,8.24474 -8.92969,11.80448 a 55.734715,55.734715 0 0 1 -39.03583,15.90044 c -15.16266,0 -28.92021,-6.0862 -38.95559,-15.89652 a 54.844291,54.844291 0 0 1 -9.35435,-12.0452 54.775796,54.775796 0 0 1 -9.26825,12.0452 55.754285,55.754285 0 0 1 -39.04169,15.89848 c -0.52839,0 -1.05677,-0.0235 -1.58516,-0.0391 h -0.0137 c -0.52838,0.0157 -1.05676,0.0391 -1.59102,0.0391 a 55.754285,55.754285 0 0 1 -39.0417,-15.89653 54.77971,54.77971 0 0 1 -9.26824,-12.04519 z m -40.09064,51.84033 -0.004,0.0196 h 0.0293 c 15.87696,0.0333 29.98089,0 47.4567,19.0727 13.75364,-1.44229 28.12568,-2.16246 42.50946,-2.14093 h 0.0118 c 14.38378,-0.0196 28.75582,0.69864 42.51141,2.14093 17.47581,-19.07466 31.57975,-19.04139 47.45671,-19.0727 h 0.0274 l -0.004,-0.0196 c 7.50109,0 37.50743,0 58.41577,58.72302 l 22.45828,80.55897 c 16.64213,59.93048 -5.32885,61.39625 -32.73436,61.44909 -40.64251,-1.51274 -63.14579,-31.02787 -63.14579,-60.53909 -22.49741,3.68694 -48.74244,5.53041 -74.98746,5.53237 h -0.0117 c -26.24698,0 -52.49201,-1.84543 -74.98746,-5.53237 0,29.51122 -22.50524,59.02635 -63.14579,60.53909 -27.405511,-0.0528 -49.374539,-1.51666 -32.732404,-61.44909 l 22.464143,-80.55701 c 20.908351,-58.72302 50.914681,-58.72302 58.415771,-58.72302 z m 89.9916,46.14944 v 0.0117 c -0.0391,0.0391 -42.78539,39.29611 -50.47044,53.25914 l 27.9926,-1.12135 v 24.41134 c 0,1.14287 11.23305,0.67711 22.47784,0.15656 h 0.0118 c 11.24087,0.52055 22.47588,0.98631 22.47588,-0.15656 v -24.41134 l 27.9926,1.12135 c -7.687,-13.96303 -50.47044,-53.25914 -50.47044,-53.25914 v -0.0117 l -0.006,0.004 z"
     color="#000000"
     id="path2"
     style="stroke-width:1.95698;fill:#ffffff;fill-opacity:1" />
</svg>
