<?xml version="1.0" encoding="UTF-8" standalone="no"?>
<!-- Created with Inkscape (http://www.inkscape.org/) -->

<svg
   width="512"
   height="512"
   viewBox="0 0 135.46666 135.46667"
   version="1.1"
   id="svg5"
   inkscape:version="1.1.2 (b8e25be833, 2022-02-05)"
   sodipodi:docname="twitter_logo.svg"
   inkscape:export-filename="D:\Github\BhanosTD.github.io\sources\images\twitter_logo.png"
   inkscape:export-xdpi="96.000008"
   inkscape:export-ydpi="96.000008"
   xmlns:inkscape="http://www.inkscape.org/namespaces/inkscape"
   xmlns:sodipodi="http://sodipodi.sourceforge.net/DTD/sodipodi-0.dtd"
   xmlns="http://www.w3.org/2000/svg"
   xmlns:svg="http://www.w3.org/2000/svg">
  <sodipodi:namedview
     id="namedview7"
     pagecolor="#4d4d4d"
     bordercolor="#999999"
     borderopacity="1"
     inkscape:pageshadow="0"
     inkscape:pageopacity="0"
     inkscape:pagecheckerboard="0"
     inkscape:document-units="mm"
     showgrid="false"
     inkscape:zoom="1.0469406"
     inkscape:cx="211.09124"
     inkscape:cy="276.99756"
     inkscape:window-width="1920"
     inkscape:window-height="1017"
     inkscape:window-x="-8"
     inkscape:window-y="-8"
     inkscape:window-maximized="1"
     inkscape:current-layer="layer1"
     units="px"
     width="512px" />
  <defs
     id="defs2" />
  <g
     inkscape:label="Warstwa 1"
     inkscape:groupmode="layer"
     id="layer1">
    <path
       style="fill:#ffffff;fill-opacity:1;stroke:none;stroke-width:1.54854px;stroke-linecap:butt;stroke-linejoin:miter;stroke-opacity:1"
       d="m 134.84,27.322951 c -4.88702,2.165512 -10.13693,3.628695 -15.65605,4.290053 5.63033,-3.371173 9.94964,-8.720571 11.98639,-15.088342 -5.26746,3.125358 -11.10263,5.396218 -17.31237,6.613587 -4.97483,-5.290869 -12.05663,-8.603516 -19.899294,-8.603516 -15.053226,0 -27.262025,12.208799 -27.262025,27.27373 0,2.130394 0.245816,4.202261 0.702329,6.203895 -22.667631,-1.141281 -42.748352,-11.9981 -56.197929,-28.491097 -2.3410928,4.038384 -3.6872212,8.72057 -3.6872212,13.707097 0,9.458015 4.8167982,17.809862 12.1268592,22.696893 -4.471487,-0.146318 -8.673748,-1.369539 -12.349263,-3.412142 v 0.351164 c 0,13.209615 9.393634,24.230309 21.871659,26.735278 -2.294271,0.62039 -4.699744,0.948143 -7.181303,0.948143 -1.75582,0 -3.47067,-0.163877 -5.132845,-0.479924 3.470669,10.827554 13.537368,18.717037 25.471089,18.927735 -9.335108,7.315915 -21.093245,11.676205 -33.8639063,11.676205 -2.2006272,0 -4.3719907,-0.12877 -6.5082378,-0.38043 12.0683331,7.74316 26.3958201,12.24976 41.7885051,12.24976 50.157909,0 77.577953,-41.542686 77.577953,-77.572102 0,-1.170546 -0.0293,-2.352798 -0.082,-3.523344 5.32599,-3.851098 9.94965,-8.644485 13.59591,-14.105084 z"
       id="path876" />
  </g>
</svg>
